<svg xmlns="http://www.w3.org/2000/svg" xmlns:xlink="http://www.w3.org/1999/xlink" width="308" zoomAndPan="magnify" viewBox="0 0 230.87999 105.749996" height="141" preserveAspectRatio="xMidYMid meet" version="1.0"><defs><g/><clipPath id="141e0a7bcf"><path d="M 36 66 L 48.097656 66 L 48.097656 80.960938 L 36 80.960938 Z M 36 66 " clip-rule="nonzero"/></clipPath><clipPath id="8096f5b75b"><path d="M 0.210938 28.585938 L 48.097656 28.585938 L 48.097656 66 L 0.210938 66 Z M 0.210938 28.585938 " clip-rule="nonzero"/></clipPath></defs><g fill="#f4f5f7" fill-opacity="1"><g transform="translate(57.864921, 74.507173)"><g><path d="M 22.15625 -34.109375 C 25.21875 -34.109375 27.820312 -33.441406 29.96875 -32.109375 C 32.125 -30.773438 33.769531 -28.921875 34.90625 -26.546875 C 36.039062 -24.179688 36.609375 -21.425781 36.609375 -18.28125 L 36.609375 -3.421875 C 36.609375 -2.410156 36.28125 -1.585938 35.625 -0.953125 C 34.96875 -0.316406 34.050781 0 32.875 0 C 31.769531 0 30.867188 -0.316406 30.171875 -0.953125 C 29.472656 -1.585938 29.125 -2.410156 29.125 -3.421875 L 29.125 -18.40625 C 29.125 -21.125 28.472656 -23.328125 27.171875 -25.015625 C 25.878906 -26.703125 23.832031 -27.546875 21.03125 -27.546875 C 20.195312 -27.546875 19.195312 -27.3125 18.03125 -26.84375 C 16.875 -26.382812 15.738281 -25.695312 14.625 -24.78125 C 13.507812 -23.863281 12.585938 -22.703125 11.859375 -21.296875 C 11.140625 -19.890625 10.78125 -18.222656 10.78125 -16.296875 L 10.78125 -3.359375 C 10.78125 -1.117188 9.578125 0 7.171875 0 C 6.023438 0 5.085938 -0.296875 4.359375 -0.890625 C 3.640625 -1.484375 3.28125 -2.304688 3.28125 -3.359375 L 3.28125 -30.109375 C 3.28125 -31.203125 3.664062 -32.03125 4.4375 -32.59375 C 5.207031 -33.164062 6.070312 -33.453125 7.03125 -33.453125 C 7.945312 -33.453125 8.800781 -33.164062 9.59375 -32.59375 C 10.382812 -32.03125 10.78125 -31.242188 10.78125 -30.234375 L 10.78125 -29.78125 C 12.664062 -31.53125 14.613281 -32.6875 16.625 -33.25 C 18.644531 -33.820312 20.488281 -34.109375 22.15625 -34.109375 Z M 22.15625 -34.109375 "/></g></g></g><g fill="#f4f5f7" fill-opacity="1"><g transform="translate(97.767035, 74.507173)"><g><path d="M 18.796875 -5.84375 C 20.066406 -5.84375 21.316406 -6.019531 22.546875 -6.375 C 23.773438 -6.726562 24.914062 -7.320312 25.96875 -8.15625 C 26.976562 -9.070312 27.960938 -9.492188 28.921875 -9.421875 C 29.890625 -9.359375 30.691406 -9.007812 31.328125 -8.375 C 31.960938 -7.738281 32.28125 -6.945312 32.28125 -6 C 32.28125 -5.0625 31.816406 -4.15625 30.890625 -3.28125 C 29.359375 -1.789062 27.539062 -0.75 25.4375 -0.15625 C 23.332031 0.425781 21.1875 0.695312 19 0.65625 C 15.582031 0.65625 12.566406 -0.0390625 9.953125 -1.4375 C 7.347656 -2.84375 5.3125 -4.796875 3.84375 -7.296875 C 2.375 -9.796875 1.640625 -12.6875 1.640625 -15.96875 C 1.640625 -19.5625 2.335938 -22.71875 3.734375 -25.4375 C 5.140625 -28.15625 7.125 -30.28125 9.6875 -31.8125 C 12.257812 -33.34375 15.296875 -34.109375 18.796875 -34.109375 C 22.304688 -34.109375 25.285156 -33.394531 27.734375 -31.96875 C 30.191406 -30.550781 32.066406 -28.5625 33.359375 -26 C 34.648438 -23.4375 35.296875 -20.445312 35.296875 -17.03125 C 35.296875 -15.925781 35.078125 -14.988281 34.640625 -14.21875 C 34.203125 -13.457031 33.039062 -13.078125 31.15625 -13.078125 L 9.265625 -13.078125 C 9.878906 -10.929688 11.039062 -9.1875 12.75 -7.84375 C 14.457031 -6.507812 16.472656 -5.84375 18.796875 -5.84375 Z M 18.859375 -27.609375 C 16.316406 -27.609375 14.191406 -26.804688 12.484375 -25.203125 C 10.773438 -23.609375 9.679688 -21.519531 9.203125 -18.9375 L 28.328125 -18.9375 C 28.109375 -21.519531 27.253906 -23.609375 25.765625 -25.203125 C 24.273438 -26.804688 21.972656 -27.609375 18.859375 -27.609375 Z M 18.859375 -27.609375 "/></g></g></g><g fill="#f4f5f7" fill-opacity="1"><g transform="translate(135.95998, 74.507173)"><g><path d="M 30.375 -6.25 C 31.25 -5.28125 31.648438 -4.3125 31.578125 -3.34375 C 31.515625 -2.382812 31.15625 -1.585938 30.5 -0.953125 C 29.84375 -0.316406 29.054688 0 28.140625 0 C 27.128906 0 26.140625 -0.484375 25.171875 -1.453125 L 15.78125 -11.640625 L 6.4375 -1.578125 C 5.4375 -0.523438 4.34375 0 3.15625 0 C 2.28125 0 1.515625 -0.296875 0.859375 -0.890625 C 0.203125 -1.484375 -0.144531 -2.226562 -0.1875 -3.125 C -0.238281 -4.019531 0.171875 -4.953125 1.046875 -5.921875 L 11.171875 -16.828125 L 1.3125 -27.484375 C 0.4375 -28.441406 0.0195312 -29.378906 0.0625 -30.296875 C 0.101562 -31.222656 0.460938 -31.976562 1.140625 -32.5625 C 1.828125 -33.15625 2.628906 -33.453125 3.546875 -33.453125 C 4.117188 -33.453125 4.695312 -33.320312 5.28125 -33.0625 C 5.875 -32.800781 6.457031 -32.363281 7.03125 -31.75 L 15.90625 -22.21875 L 24.90625 -31.875 C 25.4375 -32.445312 25.984375 -32.851562 26.546875 -33.09375 C 27.117188 -33.332031 27.671875 -33.453125 28.203125 -33.453125 C 29.117188 -33.453125 29.90625 -33.164062 30.5625 -32.59375 C 31.21875 -32.03125 31.566406 -31.296875 31.609375 -30.390625 C 31.660156 -29.492188 31.222656 -28.546875 30.296875 -27.546875 L 20.4375 -16.953125 Z M 30.375 -6.25 "/></g></g></g><g fill="#f4f5f7" fill-opacity="1"><g transform="translate(167.644937, 74.507173)"><g><path d="M 9.859375 -38.390625 C 9.859375 -37.296875 9.453125 -36.472656 8.640625 -35.921875 C 7.828125 -35.378906 6.960938 -35.109375 6.046875 -35.109375 C 5.078125 -35.109375 4.195312 -35.378906 3.40625 -35.921875 C 2.625 -36.472656 2.234375 -37.296875 2.234375 -38.390625 L 2.234375 -39.25 C 2.234375 -40.382812 2.625 -41.210938 3.40625 -41.734375 C 4.195312 -42.265625 5.078125 -42.53125 6.046875 -42.53125 C 6.960938 -42.53125 7.828125 -42.265625 8.640625 -41.734375 C 9.453125 -41.210938 9.859375 -40.382812 9.859375 -39.25 Z M 2.296875 -30.234375 C 2.296875 -31.285156 2.703125 -32.082031 3.515625 -32.625 C 4.328125 -33.175781 5.171875 -33.453125 6.046875 -33.453125 C 6.960938 -33.453125 7.816406 -33.175781 8.609375 -32.625 C 9.398438 -32.082031 9.796875 -31.304688 9.796875 -30.296875 L 9.796875 -3.21875 C 9.796875 -2.125 9.398438 -1.3125 8.609375 -0.78125 C 7.816406 -0.257812 6.960938 0 6.046875 0 C 5.171875 0 4.328125 -0.257812 3.515625 -0.78125 C 2.703125 -1.3125 2.296875 -2.125 2.296875 -3.21875 Z M 2.296875 -30.234375 "/></g></g></g><g fill="#f4f5f7" fill-opacity="1"><g transform="translate(178.425476, 74.507173)"><g><path d="M 18.796875 -34.109375 C 22.304688 -34.109375 25.375 -33.375 28 -31.90625 C 30.632812 -30.445312 32.671875 -28.398438 34.109375 -25.765625 C 35.554688 -23.140625 36.28125 -20.070312 36.28125 -16.5625 C 36.238281 -13.144531 35.484375 -10.144531 34.015625 -7.5625 C 32.546875 -4.976562 30.507812 -2.960938 27.90625 -1.515625 C 25.300781 -0.0664062 22.265625 0.65625 18.796875 0.65625 C 15.378906 0.65625 12.351562 -0.0664062 9.71875 -1.515625 C 7.09375 -2.960938 5.046875 -4.976562 3.578125 -7.5625 C 2.109375 -10.144531 1.351562 -13.144531 1.3125 -16.5625 C 1.3125 -20.070312 2.046875 -23.140625 3.515625 -25.765625 C 4.984375 -28.398438 7.03125 -30.445312 9.65625 -31.90625 C 12.289062 -33.375 15.335938 -34.109375 18.796875 -34.109375 Z M 18.796875 -5.921875 C 21.773438 -5.921875 24.148438 -6.90625 25.921875 -8.875 C 27.703125 -10.84375 28.59375 -13.40625 28.59375 -16.5625 C 28.59375 -19.800781 27.703125 -22.441406 25.921875 -24.484375 C 24.148438 -26.523438 21.773438 -27.546875 18.796875 -27.546875 C 15.859375 -27.546875 13.488281 -26.523438 11.6875 -24.484375 C 9.894531 -22.441406 9 -19.800781 9 -16.5625 C 9 -13.40625 9.894531 -10.84375 11.6875 -8.875 C 13.488281 -6.90625 15.859375 -5.921875 18.796875 -5.921875 Z M 18.796875 -5.921875 "/></g></g></g><g clip-path="url(#141e0a7bcf)"><path fill="#f4f5f7" d="M 48.386719 66.855469 L 48.386719 80.199219 C 48.386719 80.617188 48.050781 80.953125 47.632812 80.953125 L 37.09375 80.925781 C 36.679688 80.925781 36.34375 80.585938 36.34375 80.171875 L 36.34375 66.832031 C 36.34375 66.414062 36.679688 66.078125 37.097656 66.078125 L 47.636719 66.105469 C 48.050781 66.105469 48.386719 66.441406 48.386719 66.855469 " fill-opacity="1" fill-rule="nonzero"/></g><g clip-path="url(#8096f5b75b)"><path fill="#f4f5f7" d="M 24.613281 46.832031 C 24.417969 46.972656 24.296875 47.199219 24.296875 47.445312 L 24.296875 64.617188 C 24.296875 65.230469 24.988281 65.585938 25.488281 65.230469 L 48.070312 49.148438 C 48.269531 49.007812 48.386719 48.777344 48.386719 48.535156 L 48.386719 31.363281 C 48.386719 30.75 47.695312 30.394531 47.199219 30.75 Z M 24.296875 29.496094 L 24.296875 46.667969 C 24.296875 46.910156 24.179688 47.140625 23.984375 47.28125 L 1.398438 63.363281 C 0.902344 63.71875 0.210938 63.363281 0.210938 62.75 L 0.210938 45.578125 C 0.210938 45.332031 0.328125 45.105469 0.527344 44.964844 L 23.109375 28.882812 C 23.609375 28.527344 24.296875 28.882812 24.296875 29.496094 " fill-opacity="1" fill-rule="nonzero"/></g></svg>